<svg xmlns="http://www.w3.org/2000/svg" aria-hidden="true" style="position:absolute;width:0;height:0;overflow:hidden">
  <defs>
    <symbol id="icon-archive" viewBox="0 0 32 32">
      <path fill="#3371b8" d="m26.667 4 2.667 5.333v17.333A1.334 1.334 0 0 1 28 28H4a1.334 1.334 0 0 1-1.334-1.334V9.338l2.667-5.339h21.333zm0 8H5.334v13.333h21.333V12zM16 13.333l5.333 5.333h-4v5.333h-2.667v-5.333h-4l5.333-5.333zm9.019-6.666H6.982L5.65 9.334h20.703L25.02 6.667z" style="fill:var(--color1, #3371b8)"/>
    </symbol>
    <symbol id="icon-arrow-big" viewBox="0 0 32 32">
      <path d="M16.733 1.032 31.502 16 16.733 30.967H2.561L17.355 16 2.561 1.032h14.172z"/>
      <path d="M6.066 9.806 12.387 16l-6.321 6.193H0L6.332 16 0 9.806h6.066z"/>
    </symbol>
    <symbol id="icon-arrow-down" viewBox="0 0 32 32">
      <path fill="none" stroke="#499bf8" stroke-width="4" d="m4 10 12 12 12-12" style="stroke:var(--color2, #499bf8)"/>
    </symbol>
    <symbol id="icon-arrow-ellipse-up" viewBox="0 0 32 32">
      <path fill="#fff" d="M32 16c0 8.837-7.163 16-16 16S0 24.837 0 16 7.163 0 16 0s16 7.163 16 16z" opacity=".5" style="fill:var(--color3, #fff)"/>
    </symbol>
    <symbol id="icon-arrow-left" viewBox="0 0 32 32">
      <path fill="#fff" d="m10.437 14.667 7.152-7.152-1.885-1.885L5.333 16.001l10.371 10.371 1.885-1.885-7.152-7.152h16.229v-2.667H10.437z" opacity=".5" style="fill:var(--color3, #fff)"/>
    </symbol>
    <symbol id="icon-arrow-right" viewBox="0 0 32 32">
      <path fill="#fff" d="M7.656 14 18.384 3.272 15.556.444 0 16l15.556 15.556 2.828-2.828L7.656 18H32v-4H7.656z" style="fill:var(--color3, #fff)"/>
    </symbol>
    <symbol id="icon-arrow-up" viewBox="0 0 32 32">
      <path fill="none" stroke="#499bf8" stroke-width="4" d="M28 24 16 12 4 24" style="stroke:var(--color2, #499bf8)"/>
    </symbol>
    <symbol id="icon-arrows" viewBox="0 0 32 32">
      <path fill="#3371b8" d="M32 16c0 8.837-7.163 16-16 16S0 24.837 0 16 7.163 0 16 0s16 7.163 16 16z" opacity=".15" style="fill:var(--color1, #3371b8)"/>
      <path fill="#fff" d="M7.964 22.4v-3.9h1.337c.441 0 .777.088 1.007.265s.346.44.346.79c0 .179-.048.339-.145.482s-.238.254-.423.332a.854.854 0 0 1 .488.324.928.928 0 0 1 .174.568c0 .366-.118.647-.354.844-.234.196-.57.295-1.007.295H7.965zm.678-1.76v1.219h.753c.212 0 .379-.053.498-.158s.179-.252.179-.439c0-.405-.207-.613-.621-.621h-.809zm0-.498h.664c.211 0 .375-.047.493-.142a.491.491 0 0 0 .179-.407c0-.193-.055-.332-.166-.418-.109-.086-.279-.129-.512-.129h-.659v1.096zm2.783 2.258v-3.9h1.337c.441 0 .777.088 1.007.265s.346.44.346.79c0 .179-.048.339-.145.482s-.238.254-.423.332a.854.854 0 0 1 .488.324.928.928 0 0 1 .174.568c0 .366-.118.647-.354.844-.234.196-.57.295-1.007.295h-1.422zm.678-1.76v1.219h.753c.212 0 .379-.053.498-.158s.179-.252.179-.439c0-.405-.207-.613-.621-.621h-.809zm0-.498h.664c.211 0 .375-.047.493-.142a.491.491 0 0 0 .179-.407c0-.193-.055-.332-.166-.418-.109-.086-.28-.129-.512-.129h-.659v1.096zm5.062.517h-1.602v1.2h1.872v.541h-2.55v-3.9h2.531v.546h-1.854v1.077h1.602v.536zm1.5.292V22.4h-.678v-3.9h1.492c.436 0 .781.113 1.037.34.257.227.386.527.386.9 0 .382-.126.68-.378.892-.25.213-.601.319-1.053.319h-.806zm0-.544h.814c.241 0 .425-.056.552-.169.127-.114.19-.279.19-.493a.669.669 0 0 0-.193-.504c-.129-.127-.305-.192-.53-.196h-.833v1.361zm4.034-.498.82-1.409h.782l-1.179 1.934 1.205 1.966h-.79l-.838-1.43-.841 1.43h-.788l1.208-1.966-1.181-1.934h.782l.82 1.409zM15.747 7.427l-7.871 5.466c-.067.047-.105.11-.104.176v4.472c0 .137.16.249.357.249a.45.45 0 0 0 .254-.073L16 12.427l7.618 5.29c.14.097.366.097.506 0 .067-.047.105-.11.105-.176v-4.472c0-.066-.037-.129-.105-.176l-7.871-5.466a.476.476 0 0 0-.506 0h-.001z" style="fill:var(--color3, #fff)"/>
    </symbol>
    <symbol id="icon-calendar" viewBox="0 0 32 32">
      <path fill="#d3d7db" d="M27.2 4h-1.244V1.333C25.956.597 25.398 0 24.711 0h-1.244c-.687 0-1.244.597-1.244 1.333V4H9.778V1.333C9.778.597 9.221 0 8.534 0H7.29c-.687 0-1.245.597-1.245 1.333V4H4.801C2.743 4 1.068 5.795 1.068 8v20c0 2.205 1.675 4 3.733 4h22.4c2.058 0 3.733-1.795 3.733-4V8c0-2.205-1.675-4-3.733-4zm1.244 24c0 .735-.559 1.333-1.244 1.333H4.8c-.686 0-1.244-.599-1.244-1.333V13.387h24.889V28z" style="fill:var(--color4, #d3d7db)"/>
    </symbol>
    <symbol id="icon-cart" viewBox="0 0 32 32">
      <path fill="#499bf8" d="M5.333 8.552 1.009 4.229l1.887-1.887 4.323 4.324h20.323a1.332 1.332 0 0 1 1.277 1.716l-3.2 10.667a1.33 1.33 0 0 1-1.277.951H8.001v2.667h14.667v2.667h-16A1.334 1.334 0 0 1 5.334 24V8.552zM8 9.333v8h15.349l2.4-8H8zm-.667 21.334a2 2 0 1 1 .001-4.001 2 2 0 0 1-.001 4.001zm16 0a2 2 0 1 1 .001-4.001 2 2 0 0 1-.001 4.001z" style="fill:var(--color2, #499bf8)"/>
    </symbol>
    <symbol id="icon-check-mark" viewBox="0 0 32 32">
      <path fill="#27ae60" d="M23.073 10.923a1.25 1.25 0 0 1 0 1.768l-8.386 8.386a1.25 1.25 0 0 1-1.768 0l-3.992-3.992a1.25 1.25 0 0 1 1.768-1.768l3.108 3.108 7.502-7.502a1.25 1.25 0 0 1 1.768 0zM32 16c0 8.844-7.157 16-16 16-8.844 0-16-7.157-16-16C0 7.156 7.157 0 16 0c8.844 0 16 7.157 16 16zm-2.5 0c0-7.462-6.039-13.5-13.5-13.5C8.538 2.5 2.5 8.539 2.5 16S8.539 29.5 16 29.5c7.462 0 13.5-6.039 13.5-13.5z" style="fill:var(--color5, #27ae60)"/>
    </symbol>
    <symbol id="icon-checkin" viewBox="0 0 32 32">
      <path fill="#3371b8" d="M11.318 18.475a1.25 1.25 0 0 0 1.768 1.768l3.359-3.359a1.252 1.252 0 0 0 0-1.768l-3.359-3.359a1.25 1.25 0 0 0-1.768 1.768l1.225 1.225H2.188a1.25 1.25 0 0 0 0 2.5h10.355l-1.225 1.225z" style="fill:var(--color1, #3371b8)"/>
      <path fill="#3371b8" d="M30.241 0H9.866c-.69 0-1.25.56-1.25 1.25V6a1.25 1.25 0 0 0 2.5 0V2.5h17.875v27H11.116V26a1.25 1.25 0 0 0-2.5 0v4.75c0 .69.56 1.25 1.25 1.25h20.375c.69 0 1.25-.56 1.25-1.25V1.25c0-.69-.56-1.25-1.25-1.25z" style="fill:var(--color1, #3371b8)"/>
    </symbol>
    <symbol id="icon-close" viewBox="0 0 32 32">
      <path fill="#3371b8" d="m2.688 30.263-1.331-1.331L29.308.981l1.331 1.331L2.688 30.263z" style="fill:var(--color1, #3371b8)"/>
      <path fill="#3371b8" d="m30.64 28.932-1.331 1.331L1.358 2.312 2.689.981 30.64 28.932z" style="fill:var(--color1, #3371b8)"/>
    </symbol>
    <symbol id="icon-complete-mark" viewBox="0 0 32 32">
      <path fill="#3371b8" d="M16 32c8.822 0 16-7.177 16-16a15.9 15.9 0 0 0-.633-4.461 1.333 1.333 0 1 0-2.559.749c.349 1.194.526 2.443.526 3.712 0 7.352-5.981 13.333-13.333 13.333S2.668 23.352 2.668 16 8.649 2.667 16.001 2.667c2.672 0 5.242.781 7.434 2.259a1.334 1.334 0 0 0 1.491-2.211A15.897 15.897 0 0 0 16.001 0c-8.822 0-16 7.177-16 16s7.178 16 16 16z" style="fill:var(--color1, #3371b8)"/>
      <path fill="#3371b8" d="M29.724 3.058 16 16.781l-4.391-4.39a1.332 1.332 0 1 0-1.885 1.885l5.333 5.333c.261.261.601.391.943.391s.682-.13.943-.391L31.61 4.942a1.334 1.334 0 0 0-1.885-1.885z" style="fill:var(--color1, #3371b8)"/>
    </symbol>
    <symbol id="icon-delivery" viewBox="0 0 32 32">
      <path fill="#3371b8" d="M11.953 24a4.672 4.672 0 0 1-4.62 4.009A4.663 4.663 0 0 1 2.713 24h-1.38V8a1.335 1.335 0 0 1 1.334-1.334h18.667A1.335 1.335 0 0 1 22.668 8v2.667h4l4 5.408V24h-2.713a4.672 4.672 0 0 1-4.62 4.009A4.665 4.665 0 0 1 18.715 24h-6.76zM20 9.333H4v10.733a4.669 4.669 0 0 1 7.551 1.266h7.565c.224-.471.524-.899.884-1.267V9.332zm2.667 8H28v-.38l-2.677-3.62h-2.656v4zm.666 8a2.003 2.003 0 0 0 2.001-2.001 2.003 2.003 0 0 0-2.001-2.001 2.003 2.003 0 0 0-2.001 2.001 2.003 2.003 0 0 0 2.001 2.001zm-14-2a2.004 2.004 0 0 0-.586-1.414 1.986 1.986 0 0 0-1.414-.585 2.004 2.004 0 0 0-1.848 1.234 2 2 0 1 0 3.848.765z" style="fill:var(--color1, #3371b8)"/>
    </symbol>
    <symbol id="icon-dots" viewBox="0 0 32 32">
      <path fill="#666" d="M.979 14.833c0-.778.264-1.431.792-1.958.528-.542 1.243-.813 2.146-.813.917 0 1.632.271 2.146.813.528.528.792 1.181.792 1.958s-.264 1.431-.792 1.958c-.514.528-1.229.792-2.146.792-.903 0-1.618-.264-2.146-.792S.979 15.61.979 14.833zm11.875 0c0-.778.264-1.431.792-1.958.528-.542 1.243-.813 2.146-.813.917 0 1.632.271 2.146.813.528.528.792 1.181.792 1.958s-.264 1.431-.792 1.958c-.514.528-1.229.792-2.146.792-.903 0-1.618-.264-2.146-.792s-.792-1.181-.792-1.958zm11.875 0c0-.778.264-1.431.792-1.958.528-.542 1.243-.813 2.146-.813.917 0 1.632.271 2.146.813.528.528.792 1.181.792 1.958s-.264 1.431-.792 1.958c-.514.528-1.229.792-2.146.792-.903 0-1.618-.264-2.146-.792s-.792-1.181-.792-1.958z" style="fill:var(--color6, #666)"/>
    </symbol>
    <symbol id="icon-ellipse" viewBox="0 0 32 32">
      <path fill="none" stroke="#fff" stroke-width="2.133" d="M30.933 16c0 8.247-6.686 14.933-14.933 14.933S1.067 24.247 1.067 16 7.753 1.067 16 1.067 30.933 7.753 30.933 16z" style="stroke:var(--color3, #fff)"/>
    </symbol>
    <symbol id="icon-error-mark" viewBox="0 0 32 32">
      <path fill="#3371b8" d="M16 32C7.178 32 0 24.822 0 16S7.178 0 16 0s16 7.178 16 16-7.178 16-16 16zm0-29.714C8.438 2.286 2.286 8.438 2.286 16S8.438 29.714 16 29.714 29.714 23.562 29.714 16 23.562 2.286 16 2.286z" style="fill:var(--color1, #3371b8)"/>
      <path fill="#3371b8" d="M21.714 22.857c-.293 0-.585-.112-.808-.335L9.478 11.094a1.142 1.142 0 1 1 1.616-1.616l11.428 11.428a1.141 1.141 0 0 1-.808 1.951z" style="fill:var(--color1, #3371b8)"/>
      <path fill="#3371b8" d="M10.286 22.857a1.141 1.141 0 0 1-.808-1.951L20.906 9.478a1.142 1.142 0 1 1 1.616 1.616L11.094 22.522a1.14 1.14 0 0 1-.808.335z" style="fill:var(--color1, #3371b8)"/>
    </symbol>
    <symbol id="icon-facebook" viewBox="0 0 32 32">
      <path fill="#fff" d="M18.667 18H22l1.333-5.333h-4.667V10c0-1.373 0-2.667 2.667-2.667h2v-4.48c-.435-.057-2.076-.187-3.809-.187-3.62 0-6.191 2.209-6.191 6.267v3.733h-4v5.333h4v11.333h5.333V17.999z" style="fill:var(--color3, #fff)"/>
    </symbol>
    <symbol id="icon-info" viewBox="0 0 32 32">
      <path fill="#fff" d="M16 32c-2.757 0-5-2.243-5-5V17c0-2.757 2.243-5 5-5s5 2.243 5 5v10c0 2.757-2.243 5-5 5zm0-18c-1.654 0-3 1.346-3 3v10c0 1.654 1.346 3 3 3s3-1.346 3-3V17c0-1.654-1.346-3-3-3zM16 10c-2.757 0-5-2.243-5-5s2.243-5 5-5 5 2.243 5 5-2.243 5-5 5zm0-8c-1.654 0-3 1.346-3 3s1.346 3 3 3 3-1.346 3-3-1.346-3-3-3z" style="fill:var(--color3, #fff)"/>
    </symbol>
    <symbol id="icon-mail" viewBox="0 0 32 32">
      <path fill="#499bf8" d="M4 4h24a1.335 1.335 0 0 1 1.334 1.334v21.333A1.334 1.334 0 0 1 28 28.001H4a1.334 1.334 0 0 1-1.334-1.334V5.334A1.335 1.335 0 0 1 4 4zm22.667 5.651-10.571 9.467L5.333 9.622v15.712h21.333V9.651zM6.015 6.667l10.067 8.883 9.921-8.883H6.015z" style="fill:var(--color2, #499bf8)"/>
    </symbol>
    <symbol id="icon-map" viewBox="0 0 32 32">
      <path fill="#499bf8" d="m16 31.637-8.485-8.485A11.999 11.999 0 0 1 22.668 4.69a11.992 11.992 0 0 1 1.819 18.462l-8.485 8.485zm6.6-10.37a9.331 9.331 0 0 0-1.415-14.36 9.33 9.33 0 0 0-10.37 0 9.337 9.337 0 0 0-3.969 9.581A9.34 9.34 0 0 0 9.4 21.267l6.6 6.6 6.6-6.6zM16 17.333a2.67 2.67 0 0 1-2.667-2.667A2.668 2.668 0 1 1 16 17.333z" style="fill:var(--color2, #499bf8)"/>
    </symbol>
    <symbol id="icon-payment" viewBox="0 0 32 32">
      <path fill="#3371b8" d="M25.75 18.758c.69 0 1.25.56 1.25 1.25v1.5c0 .69-.56 1.25-1.25 1.25h-2.875c-.69 0-1.25-.56-1.25-1.25v-1.5c0-.69.559-1.25 1.25-1.25h2.875zm3.75-2.25v-3.75h-27v9.992c0 1.378 1.122 2.5 2.5 2.5h22c1.378 0 2.5-1.122 2.5-2.5a1.25 1.25 0 0 1 2.5 0c0 2.757-2.243 5-5 5H5c-2.757 0-5-2.243-5-5V9.25c0-2.757 2.243-5 5-5h22c2.757 0 5 2.243 5 5v7.258a1.25 1.25 0 0 1-2.5 0zm0-6.25V9.25c0-1.378-1.122-2.5-2.5-2.5H5a2.503 2.503 0 0 0-2.5 2.5v1.008h27zm-23.25 5a1.25 1.25 0 0 0 0 2.5h10.313a1.25 1.25 0 0 0 0-2.5H6.25z" style="fill:var(--color1, #3371b8)"/>
    </symbol>
    <symbol id="icon-rectangle" viewBox="0 0 32 32">
      <path fill="none" stroke="#3371b8" stroke-width="8" d="M4 4h24v24H4V4z" style="stroke:var(--color1, #3371b8)"/>
    </symbol>
    <symbol id="icon-search" viewBox="0 0 32 32">
      <path fill="#499bf8" style="fill: var(--color1, #499bf8)" d="M24.041 22.156l5.711 5.709-1.887 1.887-5.709-5.711c-2.124 1.703-4.767 2.629-7.489 2.625-6.624 0-12-5.376-12-12s5.376-12 12-12c6.624 0 12 5.376 12 12 0.004 2.723-0.922 5.365-2.625 7.489zM21.367 21.167c1.692-1.74 2.637-4.073 2.633-6.5 0-5.157-4.177-9.333-9.333-9.333-5.157 0-9.333 4.176-9.333 9.333 0 5.156 4.176 9.333 9.333 9.333 2.427 0.004 4.76-0.941 6.5-2.633l0.2-0.2z"></path>
    </symbol>
    <symbol id="icon-login" viewBox="0 0 32 32">
      <path d="M5.333 20h2.667v6.667h16v-21.333h-16v6.667h-2.667v-8c0-0.354 0.14-0.693 0.391-0.943s0.589-0.391 0.943-0.391h18.667c0.354 0 0.693 0.14 0.943 0.391s0.391 0.589 0.391 0.943v24c0 0.354-0.141 0.693-0.391 0.943s-0.589 0.391-0.943 0.391h-18.667c-0.354 0-0.693-0.141-0.943-0.391s-0.391-0.589-0.391-0.943v-8zM13.333 14.667v-4l6.667 5.333-6.667 5.333v-4h-10.667v-2.667h10.667z"></path>
    </symbol>
    <symbol id="icon-star" viewBox="0 0 32 32">
      <path fill="#e7ebf0" d="M31.896 12.254c-.257-.866-1-1.5-1.896-1.617l-8.505-1.175L18.13 1.42a2.31 2.31 0 0 0-4.263 0l-3.365 8.042-8.504 1.175a2.317 2.317 0 0 0-1.222 4.024l6.407 5.714-1.316 8.966a2.283 2.283 0 0 0 1.061 2.3 2.277 2.277 0 0 0 2.524-.047l6.547-4.452 6.547 4.457a2.311 2.311 0 0 0 3.585-2.254l-1.316-8.97 6.407-5.714c.68-.599.945-1.543.674-2.408z" style="fill:var(--color7, #e7ebf0)"/>
    </symbol>
    <symbol id="icon-team" viewBox="0 0 32 32">
      <path fill="#3371b8" d="M16 14.667a6.67 6.67 0 0 1 6.667 6.667v8H20v-8a4 4 0 0 0-3.766-3.993l-.235-.007a4 4 0 0 0-3.993 3.766l-.007.235v8H9.332v-8a6.67 6.67 0 0 1 6.667-6.667zm-8.667 4c.372 0 .733.044 1.08.125a7.915 7.915 0 0 0-.401 2.1L8 21.333v.115a1.982 1.982 0 0 0-.475-.107l-.192-.008a2.002 2.002 0 0 0-1.991 1.808l-.009.192v6H2.666v-6a4.667 4.667 0 0 1 4.667-4.667zm17.334 0a4.667 4.667 0 0 1 4.667 4.667v6h-2.667v-6a2.002 2.002 0 0 0-1.808-1.991l-.192-.009c-.233 0-.457.04-.667.113v-.113c0-.888-.144-1.741-.412-2.539a4.608 4.608 0 0 1 1.079-.128zm-17.334-8a3.333 3.333 0 1 1 0 6.667 3.333 3.333 0 0 1 0-6.667zm17.334 0a3.333 3.333 0 1 1 0 6.667 3.333 3.333 0 0 1 0-6.667zM7.333 13.333a.665.665 0 1 0 0 1.33.665.665 0 0 0 0-1.33zm17.334 0a.665.665 0 1 0 0 1.33.665.665 0 0 0 0-1.33zM16 2.667a5.332 5.332 0 1 1 0 10.665 5.332 5.332 0 0 1 0-10.665zm0 2.666A2.67 2.67 0 0 0 13.333 8 2.668 2.668 0 1 0 16 5.333z" style="fill:var(--color1, #3371b8)"/>
    </symbol>
    <symbol id="icon-trash" viewBox="0 0 32 32">
      <path fill="#f30" d="M29.333 5.333h-6.667v-4C22.666.597 22.07 0 21.333 0H10.666c-.737 0-1.333.597-1.333 1.333v4H2.666a1.333 1.333 0 1 0 0 2.666h1.333v20c0 2.205 1.795 4 4 4h16c2.205 0 4-1.795 4-4v-20h1.333a1.333 1.333 0 1 0 0-2.666zM12 2.667h8v2.667h-8V2.667zM25.333 28c0 .735-.597 1.333-1.333 1.333H8A1.335 1.335 0 0 1 6.667 28V8h18.667v20z" style="fill:var(--color8, #f30)"/>
      <path fill="#f30" d="M12 10.666c-.737 0-1.333.597-1.333 1.333v12a1.333 1.333 0 1 0 2.666 0v-12c0-.736-.596-1.333-1.333-1.333zM20 10.666c-.737 0-1.333.597-1.333 1.333v12a1.333 1.333 0 1 0 2.666 0v-12c0-.736-.596-1.333-1.333-1.333z" style="fill:var(--color8, #f30)"/>
    </symbol>
    <symbol id="icon-unarchive" viewBox="0 0 32 32">
      <path fill="#3371b8" d="m26.667 4 2.667 5.333v17.333A1.334 1.334 0 0 1 28 28H4a1.334 1.334 0 0 1-1.334-1.334V9.338l2.667-5.339h21.333zm0 8H5.334v13.333h21.333V12zm-1.648-5.333H6.982L5.65 9.334h20.703L25.02 6.667z" style="fill:var(--color1, #3371b8)"/>
    </symbol>
    <symbol id="icon-user" viewBox="0 0 32 32">
      <path fill="#fff" d="M27.063 32c-.69 0-1.25-.56-1.25-1.25 0-4.894-3.981-8.875-8.875-8.875h-1.875c-4.894 0-8.875 3.981-8.875 8.875a1.25 1.25 0 0 1-2.5 0c0-6.272 5.103-11.375 11.375-11.375h1.875c6.272 0 11.375 5.103 11.375 11.375 0 .69-.56 1.25-1.25 1.25zM15.875 16.875c-4.652 0-8.438-3.785-8.438-8.438s3.785-8.438 8.438-8.438c4.652 0 8.437 3.785 8.437 8.438s-3.785 8.438-8.437 8.438zm0-14.375c-3.274 0-5.938 2.664-5.938 5.938s2.664 5.938 5.938 5.938c3.274 0 5.937-2.664 5.937-5.938S19.148 2.5 15.875 2.5z" style="fill:var(--color3, #fff)"/>
    </symbol>
    <symbol id="icon-view-grid" viewBox="0 0 32 32">
      <path fill="#3371b8" d="M4 14.667h10.667V4H4v10.667zm2.667-8H12V12H6.667V6.667zM17.333 28H28V17.333H17.333V28zM20 20h5.333v5.333H20V20zM4 28h10.667V17.333H4V28zm2.667-8H12v5.333H6.667V20zM17.333 4v10.667H28V4H17.333zm8 8H20V6.667h5.333V12z" style="fill:var(--color1, #3371b8)"/>
    </symbol>
    <symbol id="icon-view-list" viewBox="0 0 32 32">
      <path fill="#d3d7db" d="M4 6.667v18.667h22.667V6.667H4zm5.333 2.666V12H6.666V9.333h2.667zm-2.666 8v-2.667h2.667v2.667H6.667zm0 2.667h2.667v2.667H6.667V20zM24 22.667H12V20h12v2.667zm0-5.334H12v-2.667h12v2.667zM24 12H12V9.333h12V12z" style="fill:var(--color4, #d3d7db)"/>
    </symbol>
    <symbol id="icon-youtube" viewBox="0 0 32 32">
      <path fill="#fff" d="M28.724 8.664c.609 2.376.609 7.336.609 7.336s0 4.96-.609 7.336c-.339 1.313-1.329 2.347-2.584 2.696-2.279.635-10.14.635-10.14.635s-7.857 0-10.14-.635c-1.26-.355-2.249-1.387-2.584-2.696C2.667 20.96 2.667 16 2.667 16s0-4.96.609-7.336c.339-1.313 1.329-2.347 2.584-2.696C8.143 5.333 16 5.333 16 5.333s7.861 0 10.14.635c1.26.355 2.249 1.387 2.584 2.696zM13.333 20.667l8-4.667-8-4.667v9.333z" style="fill:var(--color3, #fff)"/>
    </symbol>
    <symbol id="icon-phone" viewBox="0 0 32 32">
      <path fill="#499bf8" style="fill: var(--color1, #499bf8)" d="M9.333 5.333v21.333h13.333v-21.333h-13.333zM8 2.667h16c0.354 0 0.693 0.14 0.943 0.391s0.391 0.589 0.391 0.943v24c0 0.354-0.141 0.693-0.391 0.943s-0.589 0.391-0.943 0.391h-16c-0.354 0-0.693-0.141-0.943-0.391s-0.391-0.589-0.391-0.943v-24c0-0.354 0.14-0.693 0.391-0.943s0.589-0.391 0.943-0.391zM16 22.667c0.354 0 0.693 0.141 0.943 0.391s0.391 0.589 0.391 0.943c0 0.354-0.141 0.693-0.391 0.943s-0.589 0.391-0.943 0.391c-0.354 0-0.693-0.141-0.943-0.391s-0.391-0.589-0.391-0.943c0-0.354 0.141-0.693 0.391-0.943s0.589-0.391 0.943-0.391z"></path>
    </symbol>
    <symbol id="icon-mob-menu" viewBox="0 0 46 32">
      <path d="M0 0h46.222v3.556h-46.222v-3.556z"></path>
      <path d="M7.111 14.222h39.111v3.556h-39.111v-3.556z"></path>
      <path d="M0 28.444h46.222v3.556h-46.222v-3.556z"></path>
    </symbol>
  </defs>
</svg>
